<?xml version="1.0" encoding="utf-8" standalone="no"?>
<!DOCTYPE svg PUBLIC "-//W3C//DTD SVG 1.1//EN"
  "http://www.w3.org/Graphics/SVG/1.1/DTD/svg11.dtd">
<svg xmlns:xlink="http://www.w3.org/1999/xlink" width="460.8pt" height="345.6pt" viewBox="0 0 460.8 345.6" xmlns="http://www.w3.org/2000/svg" version="1.1">
 <metadata>
  <rdf:RDF xmlns:dc="http://purl.org/dc/elements/1.1/" xmlns:cc="http://creativecommons.org/ns#" xmlns:rdf="http://www.w3.org/1999/02/22-rdf-syntax-ns#">
   <cc:Work>
    <dc:type rdf:resource="http://purl.org/dc/dcmitype/StillImage"/>
    <dc:date>2024-06-11T13:24:55.090579</dc:date>
    <dc:format>image/svg+xml</dc:format>
    <dc:creator>
     <cc:Agent>
      <dc:title>Matplotlib v3.8.2, https://matplotlib.org/</dc:title>
     </cc:Agent>
    </dc:creator>
   </cc:Work>
  </rdf:RDF>
 </metadata>
 <defs>
  <style type="text/css">*{stroke-linejoin: round; stroke-linecap: butt}</style>
 </defs>
 <g id="figure_1">
  <g id="patch_1">
   <path d="M 0 345.6
L 460.8 345.6
L 460.8 0
L 0 0
z
" style="fill: #ffffff"/>
  </g>
  <g id="axes_1">
   <g id="patch_2">
    <path d="M 74.014507 285.034463
L 425.11284 285.034463
L 425.11284 8.210655
L 74.014507 8.210655
z
" style="fill: #ffffff"/>
   </g>
   <g id="matplotlib.axis_1">
    <g id="xtick_1">
     <g id="line2d_1">
      <defs>
       <path id="m7d75196826" d="M 0 0
L 0 3.5
" style="stroke: #5a5758; stroke-width: 0.8"/>
      </defs>
      <g>
       <use xlink:href="#m7d75196826" x="74.014507" y="297.034463" style="fill: #5a5758; stroke: #5a5758; stroke-width: 0.8"/>
      </g>
     </g>
     <g id="text_1">
      <!-- $\alpha_\text{cruise} - 1$ -->
      <g style="fill: #5a5758" transform="translate(41.327587 314.455293) scale(0.14994 -0.14994)">
       <defs>
        <path id="CMUBright-Roman-3b1" d="M 275 1510
C 275 627 858 -51 1530 -51
C 1965 -51 2330 237 2618 678
C 2733 435 2938 -51 3418 -51
C 3667 -51 3942 115 3962 474
L 3546 474
C 3546 461 3526 352 3418 352
C 3194 352 3040 717 2925 1056
C 2893 1152 2899 1152 2931 1229
C 3264 1939 3437 2509 3616 3072
L 3200 3072
L 2912 2208
L 2726 1722
C 2554 2266 2246 3072 1523 3072
C 838 3072 275 2381 275 1510
z
M 691 1472
L 691 1626
C 723 2464 1184 2682 1517 2682
C 2042 2682 2214 2029 2387 1414
C 2426 1274 2445 1210 2445 1158
C 2445 1094 2400 1050 2298 883
C 2054 544 1830 346 1517 346
C 1197 346 704 544 691 1472
z
" transform="scale(0.015625)"/>
        <path id="DejaVuSans-63" d="M 3122 3366
L 3122 2828
Q 2878 2963 2633 3030
Q 2388 3097 2138 3097
Q 1578 3097 1268 2742
Q 959 2388 959 1747
Q 959 1106 1268 751
Q 1578 397 2138 397
Q 2388 397 2633 464
Q 2878 531 3122 666
L 3122 134
Q 2881 22 2623 -34
Q 2366 -91 2075 -91
Q 1284 -91 818 406
Q 353 903 353 1747
Q 353 2603 823 3093
Q 1294 3584 2113 3584
Q 2378 3584 2631 3529
Q 2884 3475 3122 3366
z
" transform="scale(0.015625)"/>
        <path id="DejaVuSans-72" d="M 2631 2963
Q 2534 3019 2420 3045
Q 2306 3072 2169 3072
Q 1681 3072 1420 2755
Q 1159 2438 1159 1844
L 1159 0
L 581 0
L 581 3500
L 1159 3500
L 1159 2956
Q 1341 3275 1631 3429
Q 1922 3584 2338 3584
Q 2397 3584 2469 3576
Q 2541 3569 2628 3553
L 2631 2963
z
" transform="scale(0.015625)"/>
        <path id="DejaVuSans-75" d="M 544 1381
L 544 3500
L 1119 3500
L 1119 1403
Q 1119 906 1312 657
Q 1506 409 1894 409
Q 2359 409 2629 706
Q 2900 1003 2900 1516
L 2900 3500
L 3475 3500
L 3475 0
L 2900 0
L 2900 538
Q 2691 219 2414 64
Q 2138 -91 1772 -91
Q 1169 -91 856 284
Q 544 659 544 1381
z
M 1991 3584
L 1991 3584
z
" transform="scale(0.015625)"/>
        <path id="DejaVuSans-69" d="M 603 3500
L 1178 3500
L 1178 0
L 603 0
L 603 3500
z
M 603 4863
L 1178 4863
L 1178 4134
L 603 4134
L 603 4863
z
" transform="scale(0.015625)"/>
        <path id="DejaVuSans-73" d="M 2834 3397
L 2834 2853
Q 2591 2978 2328 3040
Q 2066 3103 1784 3103
Q 1356 3103 1142 2972
Q 928 2841 928 2578
Q 928 2378 1081 2264
Q 1234 2150 1697 2047
L 1894 2003
Q 2506 1872 2764 1633
Q 3022 1394 3022 966
Q 3022 478 2636 193
Q 2250 -91 1575 -91
Q 1294 -91 989 -36
Q 684 19 347 128
L 347 722
Q 666 556 975 473
Q 1284 391 1588 391
Q 1994 391 2212 530
Q 2431 669 2431 922
Q 2431 1156 2273 1281
Q 2116 1406 1581 1522
L 1381 1569
Q 847 1681 609 1914
Q 372 2147 372 2553
Q 372 3047 722 3315
Q 1072 3584 1716 3584
Q 2034 3584 2315 3537
Q 2597 3491 2834 3397
z
" transform="scale(0.015625)"/>
        <path id="DejaVuSans-65" d="M 3597 1894
L 3597 1613
L 953 1613
Q 991 1019 1311 708
Q 1631 397 2203 397
Q 2534 397 2845 478
Q 3156 559 3463 722
L 3463 178
Q 3153 47 2828 -22
Q 2503 -91 2169 -91
Q 1331 -91 842 396
Q 353 884 353 1716
Q 353 2575 817 3079
Q 1281 3584 2069 3584
Q 2775 3584 3186 3129
Q 3597 2675 3597 1894
z
M 3022 2063
Q 3016 2534 2758 2815
Q 2500 3097 2075 3097
Q 1594 3097 1305 2825
Q 1016 2553 972 2059
L 3022 2063
z
" transform="scale(0.015625)"/>
        <path id="CMUBright-Roman-2212" d="M 378 1690
C 378 1626 403 1530 582 1530
L 3520 1530
C 3693 1530 3725 1626 3725 1690
C 3725 1754 3699 1850 3526 1856
L 602 1856
C 410 1856 378 1754 378 1690
z
" transform="scale(0.015625)"/>
        <path id="CMUBright-Roman-31" d="M 672 3558
C 1197 3558 1472 3706 1549 3744
L 1549 320
L 710 320
L 710 0
L 2803 0
L 2803 320
L 1965 320
L 1965 4301
L 1862 4301
C 1696 4141 1389 3885 672 3885
L 672 3558
z
" transform="scale(0.015625)"/>
       </defs>
       <use xlink:href="#CMUBright-Roman-3b1" transform="translate(0 0.796875)"/>
       <use xlink:href="#DejaVuSans-63" transform="translate(67.326039 -13.364063) scale(0.7)"/>
       <use xlink:href="#DejaVuSans-72" transform="translate(105.812368 -13.364063) scale(0.7)"/>
       <use xlink:href="#DejaVuSans-75" transform="translate(134.591664 -13.364063) scale(0.7)"/>
       <use xlink:href="#DejaVuSans-69" transform="translate(178.956899 -13.364063) scale(0.7)"/>
       <use xlink:href="#DejaVuSans-73" transform="translate(198.405141 -13.364063) scale(0.7)"/>
       <use xlink:href="#DejaVuSans-65" transform="translate(234.874868 -13.364063) scale(0.7)"/>
       <use xlink:href="#CMUBright-Roman-2212" transform="translate(299.783852 0.796875)"/>
       <use xlink:href="#CMUBright-Roman-31" transform="translate(383.466271 0.796875)"/>
      </g>
     </g>
    </g>
    <g id="xtick_2">
     <g id="line2d_2">
      <g>
       <use xlink:href="#m7d75196826" x="249.563673" y="297.034463" style="fill: #5a5758; stroke: #5a5758; stroke-width: 0.8"/>
      </g>
     </g>
     <g id="text_2">
      <!-- $\alpha_\text{cruise}$ -->
      <g style="fill: #5a5758" transform="translate(228.497103 314.455293) scale(0.14994 -0.14994)">
       <use xlink:href="#CMUBright-Roman-3b1"/>
       <use xlink:href="#DejaVuSans-63" transform="translate(67.326039 -14.160938) scale(0.7)"/>
       <use xlink:href="#DejaVuSans-72" transform="translate(105.812368 -14.160938) scale(0.7)"/>
       <use xlink:href="#DejaVuSans-75" transform="translate(134.591664 -14.160938) scale(0.7)"/>
       <use xlink:href="#DejaVuSans-69" transform="translate(178.956899 -14.160938) scale(0.7)"/>
       <use xlink:href="#DejaVuSans-73" transform="translate(198.405141 -14.160938) scale(0.7)"/>
       <use xlink:href="#DejaVuSans-65" transform="translate(234.874868 -14.160938) scale(0.7)"/>
      </g>
     </g>
    </g>
    <g id="xtick_3">
     <g id="line2d_3">
      <g>
       <use xlink:href="#m7d75196826" x="425.11284" y="297.034463" style="fill: #5a5758; stroke: #5a5758; stroke-width: 0.8"/>
      </g>
     </g>
     <g id="text_3">
      <!-- $\alpha_\text{cruise} + 1$ -->
      <g style="fill: #5a5758" transform="translate(392.42592 314.455293) scale(0.14994 -0.14994)">
       <defs>
        <path id="CMUBright-Roman-2b" d="M 378 1690
C 378 1562 486 1530 602 1530
L 1888 1530
L 1888 230
C 1888 38 1990 13 2048 13
C 2176 13 2214 122 2214 237
L 2214 1530
L 3520 1530
C 3578 1530 3725 1542 3725 1690
C 3725 1754 3699 1856 3507 1856
L 2214 1856
L 2214 3149
C 2214 3334 2118 3366 2054 3366
C 1901 3366 1888 3219 1888 3142
L 1888 1856
L 595 1856
C 512 1856 378 1843 378 1690
z
" transform="scale(0.015625)"/>
       </defs>
       <use xlink:href="#CMUBright-Roman-3b1" transform="translate(0 0.796875)"/>
       <use xlink:href="#DejaVuSans-63" transform="translate(67.326039 -13.364063) scale(0.7)"/>
       <use xlink:href="#DejaVuSans-72" transform="translate(105.812368 -13.364063) scale(0.7)"/>
       <use xlink:href="#DejaVuSans-75" transform="translate(134.591664 -13.364063) scale(0.7)"/>
       <use xlink:href="#DejaVuSans-69" transform="translate(178.956899 -13.364063) scale(0.7)"/>
       <use xlink:href="#DejaVuSans-73" transform="translate(198.405141 -13.364063) scale(0.7)"/>
       <use xlink:href="#DejaVuSans-65" transform="translate(234.874868 -13.364063) scale(0.7)"/>
       <use xlink:href="#CMUBright-Roman-2b" transform="translate(299.783852 0.796875)"/>
       <use xlink:href="#CMUBright-Roman-31" transform="translate(383.466271 0.796875)"/>
      </g>
     </g>
    </g>
    <g id="text_4">
     <!-- $\alpha$ [deg] -->
     <g style="fill: #5a5758" transform="translate(221.393673 338.45976) scale(0.18 -0.18)">
      <defs>
       <path id="CMUBright-SemiBold-3b1" d="M 275 1510
C 275 589 883 -51 1523 -51
C 2029 -51 2394 326 2579 602
C 2682 410 2912 -51 3424 -51
C 3834 -51 4218 256 4230 736
L 3610 736
C 3603 704 3584 544 3430 544
C 3187 544 2982 1216 2982 1274
C 2982 1382 3040 1248 3616 3072
L 2995 3072
L 2682 2112
C 2554 2387 2221 3072 1530 3072
C 832 3072 275 2368 275 1510
z
M 890 1517
C 890 1728 896 1952 986 2150
C 1120 2438 1382 2483 1517 2483
C 1971 2483 2131 1914 2323 1267
C 2144 947 1894 538 1517 538
C 1402 538 1254 570 1139 666
C 915 851 890 1158 890 1517
z
" transform="scale(0.015625)"/>
       <path id="CMUBright-SemiBold-20" transform="scale(0.015625)"/>
       <path id="CMUBright-SemiBold-5b" d="M 627 -1421
L 1837 -1421
L 1837 -941
L 1229 -941
L 1229 4320
L 1837 4320
L 1837 4800
L 627 4800
L 627 -1421
z
" transform="scale(0.015625)"/>
       <path id="CMUBright-SemiBold-64" d="M 224 1517
C 224 672 698 -51 1344 -51
C 1779 -51 2061 160 2272 378
L 2272 0
L 2886 0
L 2886 4448
L 2285 4448
L 2285 2701
C 2035 2918 1722 3072 1350 3072
C 685 3072 224 2342 224 1517
z
M 838 1427
L 838 1562
C 838 1837 883 2131 1082 2336
C 1267 2528 1536 2592 1741 2592
C 1984 2592 2131 2496 2272 2349
L 2272 774
C 2195 672 2029 429 1670 429
C 1427 429 1171 531 1024 730
C 877 928 845 1184 838 1427
z
" transform="scale(0.015625)"/>
       <path id="CMUBright-SemiBold-65" d="M 186 1530
C 186 710 794 -51 1709 -51
C 2144 -51 2496 90 2784 275
L 2739 794
C 2598 691 2240 429 1709 429
C 1197 429 762 890 762 1536
L 762 1600
L 2822 1600
C 2816 2848 2093 3104 1606 3104
C 832 3104 186 2413 186 1530
z
M 838 1978
C 973 2387 1293 2618 1600 2618
C 2067 2618 2234 2240 2298 1978
L 838 1978
z
" transform="scale(0.015625)"/>
       <path id="CMUBright-SemiBold-67" d="M 224 1523
C 224 698 800 160 1382 160
C 1914 160 2189 589 2266 730
L 2272 512
L 2272 64
C 2272 -550 1888 -698 1638 -698
C 1062 -698 723 -506 467 -365
L 467 -890
C 851 -1075 1165 -1178 1651 -1178
C 2349 -1178 2886 -685 2886 58
L 2886 3072
L 2285 3072
L 2285 2624
C 2054 2925 1792 3072 1459 3072
C 800 3072 224 2400 224 1523
z
M 838 1523
C 838 2163 1306 2592 1741 2592
C 2074 2592 2285 2285 2285 2061
L 2285 1600
L 2272 1600
C 2266 1178 2131 646 1664 646
C 1242 646 838 1005 838 1523
z
" transform="scale(0.015625)"/>
       <path id="CMUBright-SemiBold-5d" d="M 147 -941
L 147 -1421
L 1357 -1421
L 1357 4800
L 147 4800
L 147 4320
L 755 4320
L 755 -941
L 147 -941
z
" transform="scale(0.015625)"/>
      </defs>
      <use xlink:href="#CMUBright-SemiBold-3b1"/>
      <use xlink:href="#CMUBright-SemiBold-20" transform="translate(66.499985 0)"/>
      <use xlink:href="#CMUBright-SemiBold-5b" transform="translate(99.799973 0)"/>
      <use xlink:href="#CMUBright-SemiBold-64" transform="translate(130.799957 0)"/>
      <use xlink:href="#CMUBright-SemiBold-65" transform="translate(182.499954 0)"/>
      <use xlink:href="#CMUBright-SemiBold-67" transform="translate(229.599945 0)"/>
      <use xlink:href="#CMUBright-SemiBold-5d" transform="translate(281.299942 0)"/>
     </g>
    </g>
   </g>
   <g id="matplotlib.axis_2">
    <g id="ytick_1">
     <g id="line2d_4">
      <defs>
       <path id="m2c45af13ae" d="M 0 0
L -3.5 0
" style="stroke: #5a5758; stroke-width: 0.8"/>
      </defs>
      <g>
       <use xlink:href="#m2c45af13ae" x="62.014507" y="285.034463" style="fill: #5a5758; stroke: #5a5758; stroke-width: 0.8"/>
      </g>
     </g>
     <g id="text_5">
      <!-- 0.75 -->
      <g style="fill: #5a5758" transform="translate(27.02024 290.244878) scale(0.14994 -0.14994)">
       <defs>
        <path id="CMUBright-Roman-30" d="M 333 1984
C 333 218 1139 -109 1677 -109
C 2022 -109 2528 38 2803 685
C 3008 1165 3021 1626 3021 2214
C 3021 3974 2214 4301 1677 4301
C 1555 4301 1414 4288 1261 4230
C 358 3898 333 2694 333 2086
L 333 1984
z
M 742 2413
C 742 2701 768 3302 1005 3642
C 1139 3834 1389 3981 1677 3981
C 1933 3981 2182 3866 2336 3661
C 2592 3328 2611 2701 2611 2406
C 2611 2342 2605 2298 2605 2272
L 2605 2163
C 2605 1613 2598 934 2330 557
C 2195 371 1958 218 1677 218
C 1427 218 1190 339 1037 538
C 755 909 749 1594 749 2150
L 749 2272
C 749 2298 742 2349 742 2413
z
" transform="scale(0.015625)"/>
        <path id="CMUBright-Roman-2e" d="M 678 0
L 1178 0
L 1178 499
L 678 499
L 678 0
z
" transform="scale(0.015625)"/>
        <path id="CMUBright-Roman-37" d="M 275 3840
L 2797 3840
C 1651 2784 1088 1357 1088 -51
L 1517 -51
C 1517 1670 2278 3021 3072 3853
L 3072 4192
L 275 4192
L 275 3840
z
" transform="scale(0.015625)"/>
        <path id="CMUBright-Roman-35" d="M 301 518
C 794 -83 1376 -109 1574 -109
C 2387 -109 3021 531 3021 1306
C 3021 2080 2451 2701 1779 2701
C 1459 2701 1197 2586 973 2381
L 973 3853
L 2797 3853
L 2797 4192
L 582 4192
L 582 1901
L 941 1901
C 1043 2080 1274 2374 1773 2374
C 2093 2374 2566 2189 2566 1312
C 2566 442 2003 224 1581 224
C 1382 224 864 269 486 819
L 301 518
z
" transform="scale(0.015625)"/>
       </defs>
       <use xlink:href="#CMUBright-Roman-30"/>
       <use xlink:href="#CMUBright-Roman-2e" x="52.499985"/>
       <use xlink:href="#CMUBright-Roman-37" x="81.699982"/>
       <use xlink:href="#CMUBright-Roman-35" x="134.199966"/>
      </g>
     </g>
    </g>
    <g id="ytick_2">
     <g id="line2d_5">
      <g>
       <use xlink:href="#m2c45af13ae" x="62.014507" y="146.622559" style="fill: #5a5758; stroke: #5a5758; stroke-width: 0.8"/>
      </g>
     </g>
     <g id="text_6">
      <!-- 0.77 -->
      <g style="fill: #5a5758" transform="translate(27.02024 151.832974) scale(0.14994 -0.14994)">
       <use xlink:href="#CMUBright-Roman-30"/>
       <use xlink:href="#CMUBright-Roman-2e" x="52.499985"/>
       <use xlink:href="#CMUBright-Roman-37" x="81.699982"/>
       <use xlink:href="#CMUBright-Roman-37" x="134.199966"/>
      </g>
     </g>
    </g>
    <g id="ytick_3">
     <g id="line2d_6">
      <g>
       <use xlink:href="#m2c45af13ae" x="62.014507" y="8.210655" style="fill: #5a5758; stroke: #5a5758; stroke-width: 0.8"/>
      </g>
     </g>
     <g id="text_7">
      <!-- 0.79 -->
      <g style="fill: #5a5758" transform="translate(27.02024 13.42107) scale(0.14994 -0.14994)">
       <defs>
        <path id="CMUBright-Roman-39" d="M 346 2803
C 346 2368 422 2054 678 1709
C 851 1472 1056 1306 1402 1306
C 1971 1306 2406 1683 2586 2074
L 2586 1984
C 2586 1152 2253 224 1376 224
C 973 224 755 416 653 480
L 486 186
C 781 -19 1024 -109 1382 -109
C 2285 -109 3008 838 3008 2125
C 3008 3955 2221 4301 1696 4301
C 1325 4301 1043 4179 768 3885
C 493 3597 346 3283 346 2803
z
M 768 2656
L 768 2822
C 768 3149 794 3398 986 3648
C 1152 3866 1357 3981 1696 3981
C 2042 3981 2502 3782 2566 2803
L 2554 2803
C 2560 2752 2560 2707 2560 2656
C 2560 2118 2189 1632 1632 1632
C 941 1632 768 2202 768 2656
z
" transform="scale(0.015625)"/>
       </defs>
       <use xlink:href="#CMUBright-Roman-30"/>
       <use xlink:href="#CMUBright-Roman-2e" x="52.499985"/>
       <use xlink:href="#CMUBright-Roman-37" x="81.699982"/>
       <use xlink:href="#CMUBright-Roman-39" x="134.199966"/>
      </g>
     </g>
    </g>
    <g id="text_8">
     <!-- $M$ -->
     <g style="fill: #5a5758" transform="translate(3.00024 143.615997) scale(0.18 -0.18)">
      <defs>
       <path id="CMUBright-SemiBold-4d" d="M 550 0
L 1152 0
L 1152 3827
C 1216 3565 1363 3181 1600 2541
L 2528 109
L 3104 109
L 4051 2586
C 4211 2995 4365 3392 4493 3827
L 4493 0
L 5094 0
L 5094 4448
L 4211 4448
C 3027 1395 2848 877 2822 723
C 2797 877 2618 1395 1434 4448
L 550 4448
L 550 0
z
" transform="scale(0.015625)"/>
      </defs>
      <use xlink:href="#CMUBright-SemiBold-4d" transform="translate(0 0.5)"/>
     </g>
    </g>
   </g>
   <g id="line2d_7">
    <defs>
     <path id="mf76d101993" d="M 0 5
C 1.326016 5 2.597899 4.473168 3.535534 3.535534
C 4.473168 2.597899 5 1.326016 5 0
C 5 -1.326016 4.473168 -2.597899 3.535534 -3.535534
C 2.597899 -4.473168 1.326016 -5 0 -5
C -1.326016 -5 -2.597899 -4.473168 -3.535534 -3.535534
C -4.473168 -2.597899 -5 -1.326016 -5 0
C -5 1.326016 -4.473168 2.597899 -3.535534 3.535534
C -2.597899 4.473168 -1.326016 5 0 5
z
" style="stroke: #ffffff"/>
    </defs>
    <g>
     <use xlink:href="#mf76d101993" x="74.014507" y="285.034463" style="fill: #e29400; stroke: #ffffff"/>
    </g>
   </g>
   <g id="line2d_8">
    <g>
     <use xlink:href="#mf76d101993" x="249.563673" y="285.034463" style="fill: #e29400; stroke: #ffffff"/>
    </g>
   </g>
   <g id="line2d_9">
    <g>
     <use xlink:href="#mf76d101993" x="425.11284" y="285.034463" style="fill: #e29400; stroke: #ffffff"/>
    </g>
   </g>
   <g id="line2d_10">
    <g>
     <use xlink:href="#mf76d101993" x="74.014507" y="146.622559" style="fill: #e29400; stroke: #ffffff"/>
    </g>
   </g>
   <g id="line2d_11">
    <g>
     <use xlink:href="#mf76d101993" x="249.563673" y="146.622559" style="fill: #e29400; stroke: #ffffff"/>
    </g>
   </g>
   <g id="line2d_12">
    <g>
     <use xlink:href="#mf76d101993" x="425.11284" y="146.622559" style="fill: #e29400; stroke: #ffffff"/>
    </g>
   </g>
   <g id="line2d_13">
    <g>
     <use xlink:href="#mf76d101993" x="74.014507" y="8.210655" style="fill: #e29400; stroke: #ffffff"/>
    </g>
   </g>
   <g id="line2d_14">
    <g>
     <use xlink:href="#mf76d101993" x="249.563673" y="8.210655" style="fill: #e29400; stroke: #ffffff"/>
    </g>
   </g>
   <g id="line2d_15">
    <g>
     <use xlink:href="#mf76d101993" x="425.11284" y="8.210655" style="fill: #e29400; stroke: #ffffff"/>
    </g>
   </g>
   <g id="patch_3">
    <path d="M 62.014507 285.034463
L 62.014507 8.210655
" style="fill: none; stroke: #5a5758; stroke-width: 0.8; stroke-linejoin: miter; stroke-linecap: square"/>
   </g>
   <g id="patch_4">
    <path d="M 74.014507 297.034463
L 425.11284 297.034463
" style="fill: none; stroke: #5a5758; stroke-width: 0.8; stroke-linejoin: miter; stroke-linecap: square"/>
   </g>
  </g>
 </g>
</svg>
